<?xml version="1.0" encoding="UTF-8"?>
<svg width="1200pt" height="1200pt" version="1.1" viewBox="0 0 1200 1200" xmlns="http://www.w3.org/2000/svg">
 <path fill="#C00000" d="m361.15 562.68c4.7852 0.24219 8.4688 4.3242 8.2266 9.1094-0.23828 4.7852-4.3242 8.4688-9.1094 8.2266-6.0273-0.32812-11.938-1.2734-17.633-2.8125-5.7695-1.5547-11.355-3.6992-16.648-6.4023h-0.003906c-21.055-10.746-35.766-29.031-42.535-49.906-6.7578-20.844-5.5664-44.258 5.1719-65.297v-0.007812c2.6055-5.1016 5.7305-9.9414 9.3164-14.445 3.5781-4.4922 7.5977-8.6172 12.004-12.301 3.6797-3.0781 9.1602-2.5938 12.238 1.0898 3.082 3.6797 2.5938 9.1602-1.0898 12.238-3.5195 2.9453-6.7227 6.2266-9.5547 9.7812-2.8242 3.5391-5.3047 7.3906-7.4023 11.496l-0.011718 0.03125c-8.5781 16.809-9.5391 35.496-4.1523 52.105 5.3711 16.582 17.09 31.121 33.871 39.691l0.027344 0.015625c4.2617 2.1758 8.707 3.8867 13.25 5.1133 4.6211 1.2461 9.3281 2.0078 14.027 2.2656zm132.32 117.83 143.54 108.38h-110.79l258.5 183.03-104.36-150.92h101.15l-140.48-140.49h-147.56zm-11.852 35.113c-44.258-4.1133-78.906-41.348-78.906-86.68 0-2.8906 0.14844-5.75 0.42188-8.5664-16.785 7.7383-35.465 12.055-55.156 12.055-72.891 0-131.98-59.09-131.98-131.98 0-60.02 40.066-110.67 94.914-126.69 1.0664 4.2148 5.1523 7.0508 9.5664 6.457 2.6758-0.35547 5.4648-0.63672 8.3555-0.82812 2.6328-0.17578 5.4258-0.26563 8.3711-0.26563 15.465 0 30.645 2.8516 44.824 8.2773 11.488 4.3945 22.312 10.457 32.09 18.047l-0.10938 0.11328c-16.816 16.812-27.215 40.039-27.215 65.695 0 6.4336 0.68359 12.883 2.0312 19.242 1.3359 6.3164 3.3281 12.484 5.9414 18.391 1.9336 4.3906 7.0664 6.3867 11.457 4.4531 4.3906-1.9336 6.3828-7.0664 4.4531-11.457-2.1445-4.8438-3.7695-9.8711-4.8555-14.992-1.0781-5.0742-1.6211-10.316-1.6211-15.637 0-20.852 8.4492-39.73 22.109-53.391s32.539-22.109 53.391-22.109c5.1758 0 10.23 0.50391 15.082 1.4883 4.9219 1.0039 9.7695 2.5156 14.465 4.5078 4.4102 1.8789 9.5117-0.17578 11.387-4.5898 1.8789-4.4141-0.17578-9.5117-4.5898-11.387-5.7188-2.4336-11.684-4.2812-17.797-5.5273-6.1875-1.2617-12.402-1.9023-18.551-1.9023-19.223 0-37.078 5.8398-51.898 15.84-11.973-9.8359-25.355-17.59-39.59-23.035-16.16-6.1836-33.434-9.4336-51.008-9.4336-3.0312 0-6.2109 0.10938-9.5273 0.33594-2.2305 0.14844-4.5078 0.35547-6.8281 0.62891 14.891-40.078 53.477-68.633 98.734-68.633 16.004 0 31.172 3.5781 44.758 9.9648 21.07-44.871 66.66-75.945 119.52-75.945 47.051 0 88.344 24.617 111.71 61.676 15.355-6.2578 32.148-9.7188 49.754-9.7188 72.887 0 131.98 59.09 131.98 131.98l-0.007813 1.0977c44.145 4.2227 78.664 41.402 78.664 86.656 0 18.59-5.8242 35.812-15.746 49.957 26.883 24.16 43.789 59.191 43.789 98.184 0 72.887-71.547 131.98-131.98 131.98-60.43 0-85.895-22.527-124.23-62.352l-61.898-61.883c-6.8477-6.8477-15.18-10.301-24.863-10.301h-147.56c-15.383 0-28.453 9.4062-33.344 23.992-4.8867 14.582-0.12109 29.969 12.152 39.238l9.3359 7.0508zm240.98-256.63c-2.3086 4.2031-7.5938 5.7422-11.797 3.4336-4.207-2.3086-5.7461-7.5898-3.4336-11.797 6.6641-12.086 16.352-21.887 27.816-28.656 11.484-6.7812 24.734-10.539 38.512-10.539 20.914 0 39.855 8.4805 53.562 22.188 13.711 13.711 22.191 32.648 22.191 53.566 0 13.43-3.5977 26.402-10.117 37.738-6.5039 11.312-15.914 20.945-27.555 27.719-4.1484 2.4023-9.4609 0.98828-11.867-3.1602-2.3984-4.1445-0.98438-9.4609 3.1602-11.863 8.9922-5.2305 16.242-12.641 21.238-21.328 4.9805-8.668 7.7305-18.664 7.7305-29.102 0-16.113-6.5273-30.703-17.086-41.258-10.559-10.559-25.145-17.09-41.258-17.09-10.648 0-20.859 2.8867-29.672 8.0898-8.8359 5.2188-16.293 12.762-21.422 22.062zm-235.88 94.02c-4.8047 0-8.7031-3.8984-8.7031-8.707 0-4.8047 3.8984-8.7031 8.7031-8.7031h147.03c2.9102-3.5898 5.2344-7.5703 6.918-11.785 2.1133-5.2969 3.2266-11.055 3.2266-16.973 0-12.629-5.1172-24.059-13.391-32.324-8.2695-8.2734-19.703-13.391-32.332-13.391-3.5938 0-7.1055 0.40234-10.488 1.1719-1.2383 0.69922-2.6328 1.0781-4.043 1.1172-2.2266 0.72656-4.3789 1.6172-6.4414 2.668-6.332 3.2227-11.848 7.9141-16.039 13.805-1.7383 2.4492-3.6758 4.5312-5.8906 6.3008-0.19141 0.15625-0.39062 0.30078-0.58984 0.4375-2.1172 1.6172-4.3984 2.9258-6.9062 3.9727-3.0117 1.2578-6.2188 2.2305-9.5625 2.9023-3.3672 0.67969-6.6953 1.0234-9.9258 1.0234-11.953 0-23.105-4.2148-31.883-11.371-8.7656-7.1445-15.137-17.227-17.555-28.973-0.95703-4.6953 2.0742-9.2773 6.7656-10.234 4.6914-0.95703 9.2773 2.0703 10.234 6.7656 1.582 7.6875 5.7617 14.293 11.504 18.977 5.7305 4.6719 13.055 7.4297 20.938 7.4297 2.3203 0 4.5039-0.21094 6.5234-0.61328 2.0859-0.42188 4.1992-1.0781 6.3008-1.9531 1.1523-0.48047 2.1328-1.0195 2.9609-1.6211 0.10547-0.09375 0.21094-0.1875 0.32031-0.27344 0.96094-0.76953 1.8242-1.7031 2.625-2.832 5.8711-8.2461 13.531-14.785 22.297-19.242 2.832-1.4414 5.7734-2.668 8.8125-3.6641 2.8359-4.6602 5.0977-9.6445 6.7422-14.84 2.0156-6.3555 3.1133-12.934 3.2227-19.523 0.074219-4.5781-0.31641-9.168-1.1602-13.691-0.82031-4.4141-2.1133-8.8047-3.8594-13.113-1.8047-4.4492 0.34375-9.5156 4.7891-11.32 4.4492-1.8047 9.5195 0.34375 11.32 4.793 2.1406 5.2695 3.7539 10.805 4.8164 16.508 1.043 5.5938 1.5234 11.32 1.4297 17.094-0.14063 8.4258-1.4883 16.672-3.9648 24.484-0.69141 2.168-1.4688 4.3125-2.3281 6.4258 17.051 0.25391 32.461 7.2695 43.676 18.48 11.426 11.426 18.488 27.207 18.488 44.633 0 8.0195-1.5586 15.945-4.5195 23.367-2.8672 7.1953-7.0469 13.855-12.375 19.59-1.5977 1.9609-4.0273 3.2148-6.7539 3.2148h-150.93zm423.85 68.762c-3.1523-3.6055-2.7852-9.0859 0.81641-12.238 3.6055-3.1562 9.0859-2.7891 12.238 0.81641 6.0547 6.9102 10.754 14.793 13.926 23.23 3.1953 8.4961 4.8672 17.523 4.8672 26.668 0 20.914-8.4766 39.855-22.188 53.562-13.711 13.711-32.648 22.191-53.566 22.191-9.1914 0-18.266-1.6914-26.785-4.918-8.4766-3.2109-16.402-7.9609-23.336-14.086-3.5859-3.1758-3.918-8.6523-0.74609-12.238s8.6523-3.918 12.238-0.74609c5.3086 4.6914 11.41 8.3438 17.965 10.824 6.5156 2.4648 13.516 3.7578 20.668 3.7578 16.113 0 30.703-6.5352 41.258-17.09 10.559-10.559 17.09-25.145 17.09-41.258 0-7.1133-1.2773-14.07-3.7148-20.547-2.457-6.5312-6.0742-12.617-10.73-17.93zm-76.777-20.324c2.3828-4.168 7.6992-5.6094 11.863-3.2266 4.1719 2.3828 5.6133 7.6992 3.2305 11.863-6.7344 11.781-16.387 21.316-27.758 27.914s-24.441 10.246-38 10.246c-20.914 0-39.859-8.4805-53.566-22.191-13.711-13.707-22.191-32.645-22.191-53.562 0-9.4844 1.8008-18.836 5.2188-27.574 3.4062-8.7109 8.4258-16.793 14.879-23.781 3.2461-3.5273 8.7383-3.7578 12.27-0.50781 3.5273 3.2461 3.7578 8.7422 0.51172 12.27-4.9805 5.3945-8.8516 11.629-11.477 18.344-2.6133 6.6836-3.9883 13.887-3.9883 21.25 0 16.113 6.5312 30.703 17.09 41.258 10.555 10.559 25.145 17.086 41.258 17.086 10.492 0 20.566-2.8008 29.297-7.8633 8.7344-5.0664 16.164-12.422 21.367-21.523zm-170.21-207.59c-0.78906 4.7305-5.2656 7.9297-9.9961 7.1406s-7.9258-5.2656-7.1367-9.9961c1.668-9.8359 5.0859-18.992 9.8984-27.176 0.035156-0.45703 0.066406-0.89844 0.09375-1.332 0.074219-1.2734 0.11328-2.7734 0.11328-4.4883 0-20.961-8.4961-39.938-22.23-53.668-13.73-13.734-32.707-22.23-53.668-22.23-8.9102 0-17.617 1.5312-25.754 4.4648-8.1406 2.9297-15.82 7.3008-22.664 12.973-3.6992 3.0586-9.1758 2.5391-12.238-1.1562-3.0586-3.6953-2.5391-9.1758 1.1562-12.238 8.3242-6.8945 17.781-12.254 27.898-15.895 10.117-3.6484 20.805-5.5547 31.598-5.5547 25.762 0 49.09 10.441 65.977 27.328 13.75 13.75 23.227 31.773 26.27 51.906l0.77344-0.66406c14.035-11.852 32.113-18.898 51.598-18.898 10.066 0 19.973 1.918 29.227 5.5508 9.2383 3.6289 17.801 8.9805 25.199 15.859 3.5117 3.2656 3.707 8.7617 0.44141 12.273-3.2656 3.5117-8.7617 3.707-12.273 0.44141-5.7773-5.3711-12.473-9.5547-19.688-12.391-7.2109-2.832-14.973-4.3242-22.906-4.3242-15.277 0-29.426 5.4961-40.379 14.746-4.4688 3.7773-8.4141 8.1797-11.691 13.086-0.39844 2.0859-1.5234 3.8711-3.082 5.1289-3.1367 5.8438-5.3867 12.27-6.543 19.109z" fill-rule="evenodd"/>
</svg>
