<?xml version="1.0" encoding="UTF-8"?>
<svg width="1200pt" height="1200pt" version="1.1" viewBox="0 0 1200 1200" xmlns="http://www.w3.org/2000/svg">
 <path fill="#C00000" d="m186.36 1140h-75.961c-27.602 0-50.039-22.441-50.039-50.039v-304.2c0-27.602 22.441-50.039 50.039-50.039h76.078c27.602 0 50.039 22.441 50.039 50.039v304.2c0.003906 27.598-22.555 50.039-50.156 50.039zm-75.961-379.32c-13.801 0-25.078 11.281-25.078 25.078v304.2c0 13.801 11.281 25.078 25.078 25.078h76.078c13.801 0 25.078-11.281 25.078-25.078l0.003906-304.2c0-13.801-11.281-25.078-25.078-25.078zm304.68 379.32h-76.078c-27.602 0-50.039-22.441-50.039-50.039v-503.88c0-27.602 22.441-50.039 50.039-50.039h76.078c27.602 0 50.039 22.441 50.039 50.039v503.88c0.12109 27.602-22.438 50.043-50.039 50.043zm-75.957-579c-13.801 0-25.078 11.281-25.078 25.078v503.88c0 13.801 11.281 25.078 25.078 25.078h76.078c13.801 0 25.078-11.281 25.078-25.078l0.003906-503.88c0-13.801-11.281-25.078-25.078-25.078zm300.12 579h-76.078c-27.602 0-50.039-22.441-50.039-50.039v-428.88c0-27.602 22.441-50.039 50.039-50.039h76.078c27.602 0 50.039 22.441 50.039 50.039v428.88c0.12109 27.602-22.316 50.043-50.039 50.043zm-75.957-504c-13.801 0-25.078 11.281-25.078 25.078v428.88c0 13.801 11.281 25.078 25.078 25.078h76.078c13.801 0 25.078-11.281 25.078-25.078l0.003906-428.88c0-13.801-11.281-25.078-25.078-25.078zm301.2 504h-76.082c-27.602 0-50.039-22.441-50.039-50.039v-579.36c0-27.602 22.441-50.039 50.039-50.039h76.078c27.602 0 50.039 22.441 50.039 50.039v579.36c0.003906 27.598-22.438 50.039-50.035 50.039zm-76.082-654.36c-13.801 0-25.078 11.281-25.078 25.078v579.36c0 13.801 11.281 25.078 25.078 25.078h76.078c13.801 0 25.078-11.281 25.078-25.078l0.003906-579.48c0-13.801-11.281-25.078-25.078-25.078l-76.082-0.003907zm301.2 654.36h-76.078c-27.602 0-50.039-22.441-50.039-50.039l-0.003906-729.84c0-27.602 22.441-50.039 50.039-50.039h76.078c27.602 0 50.039 22.441 50.039 50.039v729.84c0.003906 27.598-22.438 50.039-50.035 50.039zm-75.961-804.96c-13.801 0-25.078 11.281-25.078 25.078v729.84c0 13.801 11.281 25.078 25.078 25.078h76.078c13.801 0 25.078-11.281 25.078-25.078l0.003906-729.84c0-13.801-11.281-25.078-25.078-25.078zm37.918-275.04c-48.602 0-88.078 39.48-88.078 88.078 0 11.879 2.3984 23.16 6.6016 33.48-27.602 17.16-54.719 35.039-81 53.52-15.961-16.199-38.16-26.281-62.641-26.281-48.602 0-88.078 39.48-88.078 88.078 0 16.68 4.6797 32.281 12.719 45.602-6.8398 5.7617-13.199 11.398-19.441 16.68-20.762 17.879-38.039 32.641-53.879 44.281-15.238-26.52-43.801-44.52-76.441-44.52-37.559 0-69.84 23.762-82.441 57-10.199-5.3984-19.922-11.52-29.52-17.52-8.0391-5.0391-16.32-10.199-24.84-15 0.48047-3.6016 0.71875-7.3203 0.71875-11.16 0-48.602-39.48-88.078-88.078-88.078-48.602 0-88.078 39.48-88.078 88.078 0 5.2812 0.48047 10.441 1.4414 15.48-35.52 21.961-70.922 57.121-105.48 104.88-11.16-5.0391-23.52-7.9219-36.48-7.9219-48.602 0-88.078 39.48-88.078 88.078 0 48.602 39.48 88.078 88.078 88.078 48.602 0 88.078-39.48 88.078-88.078 0-26.52-11.879-50.398-30.48-66.602 30.719-42.238 61.801-73.68 92.641-93.961 14.641 28.559 44.281 48.238 78.48 48.238 35.762 0 66.602-21.359 80.398-52.078 6.1211 3.6016 12.359 7.4414 18.602 11.398 11.879 7.4414 24.121 15 37.32 21.602-0.12109 1.9219-0.23828 3.8398-0.23828 5.7617 0 48.602 39.48 88.078 88.078 88.078 48.602 0 88.078-39.48 88.078-88.078 0-6.7188-0.71875-13.199-2.1602-19.559 18.238-12.719 37.441-29.281 60.84-49.441 6-5.1602 12.238-10.559 18.961-16.199 15.719 14.398 36.602 23.16 59.52 23.16 48.602 0 88.078-39.48 88.078-88.078 0-15.121-3.8398-29.281-10.559-41.762 25.68-18 52.078-35.398 78.84-52.078 16.199 20.16 40.922 33.121 68.762 33.121 48.602 0 88.078-39.48 88.078-88.078 0-48.598-39.719-88.199-88.32-88.199zm-840.12 512.76c0 34.801-28.32 63-63 63-34.68 0-63-28.32-63-63 0-34.68 28.32-63 63-63 34.68 0 63 28.199 63 63zm165.72-137.4c-34.801 0-63-28.32-63-63 0-34.801 28.32-63 63-63 34.68 0 63 28.32 63 63s-28.32 63-63 63zm224.16 74.762c-34.801 0-63-28.32-63-63 0-34.68 28.199-63.121 63-63.121 34.801 0 63 28.32 63 63s-28.32 63.121-63 63.121zm225.12-150.12c-34.801 0-63-28.32-63-63s28.32-63 63-63c34.68 0 63 28.32 63 63s-28.203 63-63 63zm225.12-148.92c-34.801 0-63-28.32-63-63s28.32-63 63-63c34.68 0 63 28.32 63 63 0 34.684-28.199 63-63 63z"/>
</svg>
