<?xml version="1.0" encoding="UTF-8"?>
<svg width="1200pt" height="1200pt" version="1.1" viewBox="0 0 1200 1200" xmlns="http://www.w3.org/2000/svg">
 <path fill="#C00000" d="m1044.7 229.69c-106.88-106.31-280.69-106.31-387.74 0l-30.562 30.562c-14.625 14.438-38.25 14.438-52.875 0l-30.562-30.562c-53.438-53.25-123.74-79.688-193.87-79.688-70.312 0-140.44 26.438-193.87 79.688-51.75 51.375-80.25 120-80.25 192.74 0 72.742 28.5 141.19 80.25 192.56l431.63 429.37c7.125 7.3125 19.125 7.3125 26.25 0l431.63-429.37c51.75-51.375 80.25-119.81 80.25-192.56s-28.5-141.37-80.25-192.74zm-823.5 319.69c7.3125 7.3125 7.5 19.125 0.1875 26.438-3.75 3.75-8.625 5.625-13.312 5.625-4.875 0-9.5625-1.875-13.312-5.4375-41.062-41.062-63.75-95.625-63.75-153.56 0-58.125 22.688-112.69 63.75-153.56 7.3125-7.3125 19.312-7.3125 26.625 0s7.125 19.125-0.1875 26.438c-33.938 33.938-52.688 79.125-52.688 127.13 0 48.004 18.75 93 52.688 126.94z"/>
</svg>
