<?xml version="1.0" encoding="UTF-8"?>
<svg width="1200pt" height="1200pt" version="1.1" viewBox="0 0 1200 1200" xmlns="http://www.w3.org/2000/svg">
 <path fill="#C00000" d="m824.52 506.16h-42.359c-3-9.2383-6.7188-18.121-11.16-26.879l29.879-30c5.3984-5.3984 5.3984-14.039 0-19.441l-65.039-65.039c-2.5195-2.5195-6.1211-4.0781-9.7188-4.0781-3.6016 0-7.0781 1.4414-9.7188 4.0781l-29.879 30c-8.6406-4.4414-17.641-8.1602-26.879-11.16v-42.359c0-7.5586-6.1211-13.68-13.68-13.68h-92.039c-7.5586 0-13.68 6.1211-13.68 13.68v42.359c-9.2383 3-18.238 6.7188-26.879 11.16l-29.879-30c-2.5195-2.5195-6.1211-4.0781-9.7188-4.0781-3.6016 0-7.0781 1.4414-9.7188 4.0781l-65.039 65.039c-2.5195 2.5195-4.0781 6.1211-4.0781 9.7188 0 3.6016 1.4414 7.0781 4.0781 9.7188l30 30c-4.4414 8.6406-8.1602 17.641-11.16 26.879h-42.359c-7.5586 0-13.68 6.1211-13.68 13.68l-0.011719 92.164c0 7.5586 6.1211 13.68 13.68 13.68h42.359c3 9.2383 6.7188 18.238 11.16 26.879l-30 30c-5.3984 5.3984-5.3984 14.039 0 19.441l65.039 65.039c2.5195 2.5195 6.1211 4.0781 9.7188 4.0781 3.6016 0 7.0781-1.4414 9.7188-4.0781l30-30c8.6406 4.4414 17.641 8.1602 26.879 11.16v42.359c0 7.5586 6.1211 13.68 13.68 13.68h92.039c7.5586 0 13.68-6.1211 13.68-13.68v-42.359c9.2383-3 18.121-6.7188 26.879-11.16l30 30c2.5195 2.5195 6.1211 4.0781 9.7188 4.0781 3.6016 0 7.0781-1.4414 9.7188-4.0781l65.039-65.039c5.3984-5.3984 5.3984-14.039 0-19.441l-30-30c4.4414-8.6406 8.1602-17.641 11.16-26.879h42.359c7.5586 0 13.68-6.1211 13.68-13.68v-92.039c0.011718-7.5625-6.2305-13.801-13.789-13.801zm-13.68 92.16h-38.879c-6.2383 0-11.641 4.1992-13.32 10.199-3.7188 13.801-9.2383 27.238-16.441 39.719-3.1211 5.3984-2.1602 12.238 2.1602 16.559l27.48 27.48-45.719 45.719-27.48-27.48c-4.4414-4.4414-11.16-5.2812-16.559-2.1602-12.48 7.1992-25.801 12.719-39.602 16.441-6 1.5586-10.199 7.0781-10.199 13.32v38.879h-64.559l-0.003906-38.996c0-6.2383-4.1992-11.641-10.199-13.32-13.922-3.7188-27.238-9.2383-39.602-16.441-5.3984-3.1211-12.238-2.2812-16.559 2.1602l-27.48 27.48-45.719-45.719 27.48-27.48c4.4414-4.4414 5.2812-11.16 2.1602-16.559-7.1992-12.48-12.719-25.801-16.441-39.719-1.5586-6-7.0781-10.199-13.32-10.199h-38.879v-64.559h38.879c6.2383 0 11.641-4.1992 13.32-10.199 3.7188-13.922 9.2383-27.238 16.441-39.602 3.1211-5.3984 2.2812-12.238-2.1602-16.559l-27.48-27.48 45.719-45.719 27.48 27.48c4.4414 4.4414 11.16 5.2812 16.559 2.1602 12.48-7.1992 25.801-12.719 39.719-16.441 6-1.5586 10.199-7.0781 10.199-13.32l0.003906-38.766h64.559v38.879c0 6.2383 4.1992 11.641 10.199 13.32 13.922 3.7188 27.238 9.2383 39.719 16.441 5.3984 3.1211 12.238 2.2812 16.559-2.1602l27.48-27.48 45.719 45.719-27.48 27.48c-4.4414 4.4414-5.2812 11.16-2.1602 16.559 7.1992 12.48 12.719 25.801 16.441 39.719 1.5586 6 7.0781 10.199 13.32 10.199h38.879l0.003906 64.445zm-210.84-159.6c-70.199 0-127.32 57.121-127.32 127.32 0 70.199 57.121 127.32 127.32 127.32s127.32-57.121 127.32-127.32c0-70.32-57.121-127.32-127.32-127.32zm0 227.04c-55.078 0-99.84-44.762-99.84-99.84s44.762-99.84 99.84-99.84 99.84 44.762 99.84 99.84-44.762 99.84-99.84 99.84zm0-420.96c-177.12 0-321.12 144-321.12 321.12 0 61.199 17.281 120.6 49.922 172.08 30.238 47.52 72.238 86.281 122.04 112.44v76.68c0 7.5586 6.1211 13.68 13.68 13.68h270.96c7.5586 0 13.68-6.1211 13.68-13.68v-76.68c49.68-26.16 91.801-64.801 122.04-112.44 32.641-51.359 49.922-110.88 49.922-172.08 0-177-144.12-321.12-321.12-321.12zm129.36 584.88c-4.6797 2.2812-7.6797 7.0781-7.6797 12.359v71.281h-243.48v-71.281c0-5.2812-3-9.9609-7.6797-12.359-101.28-49.801-164.28-150.84-164.28-263.76 0-161.88 131.76-293.64 293.64-293.64 162 0 293.64 131.76 293.64 293.64 0.12109 112.92-62.758 213.96-164.16 263.76zm-129.36-390.96c-70.199 0-127.32 57.121-127.32 127.32 0 70.199 57.121 127.32 127.32 127.32s127.32-57.121 127.32-127.32c0-70.32-57.121-127.32-127.32-127.32zm0 227.04c-55.078 0-99.84-44.762-99.84-99.84s44.762-99.84 99.84-99.84 99.84 44.762 99.84 99.84-44.879 99.84-99.84 99.84zm135.48 297.84h-270.96c-7.5586 0-13.68 6.1211-13.68 13.68v34.441c0 35.879 29.16 65.039 65.039 65.039h168.36c35.879 0 65.039-29.16 65.039-65.039v-34.441c-0.11719-7.5625-6.2383-13.68-13.797-13.68zm-13.801 48.238c0 20.762-16.801 37.559-37.559 37.559h-168.36c-20.762 0-37.559-16.801-37.559-37.559v-20.762h243.48zm-54.961 87.84h-133.44c-7.5586 0-13.68 6.1211-13.68 13.68v22.078c0 22.68 18.359 41.039 41.039 41.039h78.84c22.68 0 41.039-18.359 41.039-41.039v-22.078c-0.12109-7.5586-6.2383-13.68-13.801-13.68zm-13.797 35.879c0 7.4414-6.1211 13.559-13.559 13.559h-78.84c-7.4414 0-13.559-6.1211-13.559-13.559v-8.3984h105.96zm393.36-386.4c-27.961-16.199-62.762-10.32-83.879 12.359l-30.48-17.641c28.559-53.879 43.559-114.36 43.559-175.8 0-7.5586-6.1211-13.68-13.68-13.68-7.5625 0-13.801 6.2422-13.801 13.801 0 61.199-16.078 121.44-46.559 174-0.23828 0.48047-0.35938 0.83984-0.60156 1.3203-0.12109 0.35938-0.35938 0.83984-0.48047 1.1992-0.12109 0.48047-0.23828 0.96094-0.35938 1.4414-0.12109 0.35938-0.23828 0.83984-0.23828 1.1992-0.12109 0.48047 0 1.0781 0 1.5586v1.0781c0 0.60156 0.12109 1.0781 0.23828 1.6797v0.96484c0.12109 0.60156 0.35938 1.1992 0.60156 1.6797 0.12109 0.23828 0.12109 0.48047 0.23828 0.71875 0.23828 0.60156 0.71875 1.1992 1.0781 1.6797 0.12109 0.23828 0.23828 0.35938 0.35938 0.60156 0.35938 0.48047 0.83984 0.96094 1.1992 1.3203 0.23828 0.23828 0.35938 0.48047 0.60156 0.60156 0.35938 0.35937 0.96094 0.71875 1.3203 0.96094 0.23828 0.23828 0.60156 0.48047 0.83984 0.60156l41.52 24c-4.6797 12.84-5.2812 26.879-1.6797 40.32 4.6797 17.52 15.84 32.281 31.559 41.398 10.68 6.2383 22.441 9.2383 34.078 9.2383 23.398 0 46.32-12.121 58.922-33.84 19.082-32.281 8.043-73.922-24.355-92.762zm0.83984 79.078c-11.281 19.32-36.121 25.922-55.441 14.641-9.3594-5.3984-16.078-14.16-18.84-24.719-2.7617-10.441-1.3203-21.359 4.1992-30.719 7.5586-12.961 21.121-20.16 35.16-20.16 6.9609 0 13.922 1.8008 20.281 5.5195 19.199 11.277 25.801 36.121 14.641 55.438zm-747.96-435.48c0.12109-0.35938 0.35938-0.83984 0.48047-1.1992 0.12109-0.48047 0.23828-0.83984 0.23828-1.3203 0.12109-0.48047 0.23828-0.83984 0.23828-1.3203 0.12109-0.48047 0-0.96094 0-1.4414v-1.1992c0-0.60156-0.12109-1.0781-0.23828-1.6797 0.12109-0.24219 0.12109-0.60156 0-0.83984-0.12109-0.60156-0.35938-1.1992-0.60156-1.6797-0.12109-0.23828-0.12109-0.48047-0.23828-0.71875-0.23828-0.60156-0.60156-1.0781-0.96094-1.5586-0.12109-0.23828-0.23828-0.48047-0.35938-0.60156-0.35938-0.48047-0.83984-0.83984-1.1992-1.3203-0.23828-0.23828-0.35938-0.48047-0.60156-0.60156-0.35938-0.35938-0.96094-0.71875-1.3203-0.96094-0.23828-0.23828-0.60156-0.48047-0.83984-0.60156l-41.762-24.121c10.078-30-2.0391-64.078-30.48-80.52-32.52-18.719-74.16-7.5586-92.879 24.84-18.719 32.398-7.5586 74.16 24.84 92.879 10.441 6.1211 22.078 9.1211 33.961 9.1211 5.8789 0 11.879-0.71875 17.641-2.2812 12.961-3.4805 24.359-10.559 33.121-20.281l30.238 17.398c-28.559 53.879-43.68 114.36-43.68 175.8 0 7.5586 6.1211 13.68 13.68 13.68s13.68-6.1211 13.68-13.68c0-61.199 16.078-121.44 46.559-174 0.125-0.83594 0.24609-1.3164 0.48438-1.793zm-101.52-24c-10.441 2.7617-21.359 1.3203-30.719-4.0781-19.32-11.16-26.039-36-14.762-55.441 7.5586-12.961 21.121-20.281 35.16-20.281 6.8398 0 13.801 1.8008 20.281 5.3984 19.32 11.16 26.039 36 14.762 55.441-5.4023 9.4805-14.164 16.199-24.723 18.961zm874.08-73.082c-9.1211-15.719-23.762-27-41.281-31.68s-35.879-2.2812-51.602 6.8398c-15.719 9.1211-27 23.762-31.68 41.281-3.4805 13.078-3 26.52 1.1992 39.121l-30.121 17.398c-32.52-51.84-77.398-95.039-130.32-125.64-6.6016-3.8398-15-1.5586-18.719 5.0391-3.8398 6.6016-1.5586 15 5.0391 18.719 52.801 30.48 96.84 74.52 127.44 127.44 1.1992 2.0391 2.8789 3.7188 4.8008 4.9219 0.12109 0 0.23828 0.12109 0.23828 0.23828 0.35938 0.23828 0.83984 0.35938 1.1992 0.60156 0.12109 0 0.23828 0.12109 0.35938 0.12109 0.35937 0.12109 0.71875 0.23828 1.0781 0.35938 0.23828 0.12109 0.35938 0.12109 0.60156 0.23828 0.23828 0 0.35938 0.12109 0.60156 0.12109 0.96094 0.23828 1.9219 0.35938 2.8789 0.35938 2.2812 0 4.6797-0.60156 6.8398-1.8008l41.762-24.121c13.078 14.762 31.801 22.801 50.879 22.801 11.52 0 23.16-2.8789 33.961-9.1211 32.406-19.078 43.566-60.719 24.844-93.238zm-38.641 69.121c-19.32 11.16-44.16 4.5586-55.441-14.879-5.3984-9.3594-6.8398-20.281-4.0781-30.719 2.7617-10.441 9.4805-19.199 18.84-24.602 6.2383-3.6016 13.199-5.3984 20.16-5.3984 3.4805 0 7.0781 0.48047 10.559 1.4414 10.441 2.7617 19.199 9.4805 24.602 18.84 11.402 19.316 4.6797 44.156-14.641 55.316zm-607.2 504.84c-52.801-30.602-96.961-74.641-127.44-127.44-0.96094-1.6797-2.1602-3-3.6016-4.0781-0.12109-0.12109-0.35938-0.23828-0.48047-0.23828-0.60156-0.35937-1.1992-0.83984-1.8008-1.0781-3.1211-1.5586-6.7188-1.8008-10.078-0.71875-0.12109 0-0.23828 0-0.23828 0.12109-0.23828 0.12109-0.48047 0.23828-0.83984 0.35938-0.60156 0.23828-1.1992 0.48047-1.8008 0.83984l-41.879 24.238c-21-23.398-56.281-29.762-84.602-13.441-32.52 18.719-43.559 60.48-24.84 92.879 12.602 21.719 35.52 33.961 59.039 33.961 11.52 0 23.281-2.8789 33.961-9.1211 15.719-9.1211 27-23.762 31.68-41.281 3.4805-13.078 3-26.641-1.1992-39.238l30.121-17.398c32.52 51.719 77.281 95.039 130.32 125.76 2.1602 1.1992 4.5586 1.8008 6.8398 1.8008 4.8008 0 9.3594-2.3984 11.879-6.8398 3.8438-6.8477 1.5625-15.246-5.0391-19.086zm-199.44-52.32c-2.7617 10.441-9.4805 19.199-18.84 24.602-19.32 11.16-44.16 4.5586-55.441-14.762-11.16-19.32-4.5586-44.16 14.762-55.441 9.3594-5.3984 20.281-6.8398 30.719-4.0781 10.441 2.7617 19.199 9.4805 24.602 18.84 5.5195 9.3594 6.957 20.281 4.1992 30.84zm441.48-725.88c0-37.559-30.48-68.039-68.039-68.039-37.559 0-68.039 30.48-68.039 68.039 0 32.762 23.398 60.238 54.238 66.602v34.801c-61.32 2.2812-121.2 19.441-174.12 50.039-6.6016 3.8398-8.7617 12.238-5.0391 18.719 2.5195 4.4414 7.1992 6.8398 11.879 6.8398 2.2812 0 4.6797-0.60156 6.8398-1.8008 52.68-30.48 112.8-46.559 174-46.559 7.5586 0 13.68-6.1211 13.68-13.68v-48.359c31.32-6.3633 54.602-33.844 54.602-66.602zm-67.922 40.559c-22.441 0-40.559-18.238-40.559-40.559 0-22.32 18.238-40.559 40.559-40.559s40.559 18.238 40.559 40.559c0 22.32-18.238 40.559-40.559 40.559z"/>
</svg>
