<?xml version="1.0" encoding="UTF-8"?>
<svg width="1200pt" height="1200pt" version="1.1" viewBox="0 0 1200 1200" xmlns="http://www.w3.org/2000/svg">
 <path fill="#C00000" d="m442.78 557.21c-7.5469-4.4531-14.672-9.6094-21.281-15.328-109.12-90.938-117.7-262.6-27.375-369.32 47.625-55.734 115.88-89.719 189.1-94.125 182.58-3.2812 318.66 151.82 272.86 334.03-11.25 44.719-52.5 119.72-94.641 144.79l-31.641-14.391v-0.046875c12.938-8.6719 25.031-18.562 36.047-29.578-14.391-12.047-29.812-22.828-46.078-32.203-10.875 15.047-16.172 32.625-29.203 46.453-8.6719-2.625-17.203-5.0156-26.062-6.8906v-0.046875c13.5-14.719 24.375-31.688 32.156-50.156-27.938-10.125-57.328-15.609-87.047-16.266-0.23438 18.938 0 37.922 0 56.859-8.0156 0.65625-16.078 0.65625-24.141 0v-56.859c-28.875 0.42188-57.469 5.9531-84.469 16.266 8.8125 17.906 19.641 34.688 32.297 50.156-8.5781 1.5938-17.016 3.8906-25.219 6.8906-11.25-14.25-20.625-29.859-27.984-46.453-17.062 7.6406-32.859 17.766-47.016 30 12.234 12.469 26.531 22.734 42.281 30.234-11.25 4.4062-22.172 9.7969-32.578 15.984zm166.82-445.6c-1.5469 30.281-1.5938 75.047 0 105.33 25.266 0.46875 47.578-6.9844 72-10.125 3.8906-2.0156 7.9219-3.7031 12.094-5.1094-14.344-36.094-41.766-83.719-84.094-90.094zm-26.391 0c-34.172 11.344-70.547 54.984-78.75 90.141 5.2031 1.875 10.312 3.6094 15.609 5.1094v-0.046875c20.953 7.4531 43.172 10.875 65.391 10.125 0.09375-14.297 2.6719-99.516-1.2188-105.19zm83.672 7.125c23.156 14.672 38.625 48.984 49.969 73.5 9.5156-4.7344 18.609-9.6094 28.547-13.359l-0.046876-0.046875c3.8438-4.0312 8.0156-7.6875 12.562-10.875-19.922-17.812-64.125-48.516-91.078-49.266zm-141.1 0c-26.391 9.9375-65.297 26.344-82.969 49.219l-0.046875-0.046875c4.0312 4.3594 8.7188 8.0156 13.875 10.922 7.7812 4.5 15.516 9.1875 23.484 13.359 8.7188-20.484 19.781-39.844 33-57.797 4.6875-4.8281 8.9531-10.031 12.75-15.609zm250.13 67.453c-17.062 10.031-33.422 19.922-51.141 28.781 13.219 35.438 20.203 72.891 20.578 110.72h90.844c-4.9219-37.125-28.312-115.78-60.281-139.5zm-355.92 0c-29.062 39.281-57.047 88.969-57.141 139.55h88.172v-0.046875c0.42187-37.781 7.2656-75.188 20.156-110.72-13.781-7.0781-39.797-24.656-51.188-28.781zm281.16 39.094c-29.812 8.8594-60.516 14.438-91.547 16.641v83.766h111.23c0.14062-17.062-8.5312-86.391-18.328-100.36zm-207.61 0c-10.734 32.438-16.828 66.234-18.141 100.41h110.16l-0.046876-83.766c-41.062-1.3125-57.281-10.688-91.969-16.641zm-81.422 125.34h-49.219c-3.7031 81.844 49.641 145.26 57.141 140.39 14.391-14.344 31.922-25.219 51.234-31.688-14.156-34.453-21.047-71.484-20.203-108.75zm63.281 0h-0.046876c-0.70312 33.469 5.4844 66.703 18.188 97.688 24.234-8.8125 49.359-14.906 74.906-18.234 5.6719-0.32812 11.391-0.32812 17.062 0v-79.453zm134.26 0c-1.125 3.8906 0 68.766 0 79.406l-0.046875 0.046875c32.578 0 64.875 6.1875 95.109 18.234l3.7969-11.859c8.4375-27.844 12.609-56.766 12.328-85.828zm135.74 0h-0.046876c0.1875 22.969-2.1562 45.844-7.0312 68.297-4.125 13.172-6.9844 26.719-8.5781 40.453 18.75 10.359 36.516 22.453 53.062 36.141 5.3906-6.6562 10.359-13.594 15.188-20.672l-0.046876-0.046875c23.531-37.266 36.75-80.109 38.25-124.18-30.234 0-60.609-0.51563-90.844 0z"/>
 <path fill="#C00000" d="m847.45 599.76c-12.328-22.547 6.1406-24.516 24.609-34.875l102.66-58.641 0.046875 0.046875c9.375-6 19.312-11.062 29.625-15.234 14.812-0.28125 26.391 29.062 33.094 40.172l97.359 157.82c6.2812 10.078 41.812 60.562 41.109 70.688-6.9375 11.062-106.41 65.953-124.4 76.266-45.281 26.062-40.172 35.016-66.562-8.625l0.046875 0.046876c-23.953 12.328-46.969 26.344-69 41.859-18.375 17.531-37.266 45.844-58.688 66.797 25.312 57.047-13.969 107.53-74.578 92.531-21.188 41.859-39.422 58.781-89.016 48.844l-0.98438 1.7344c-19.781 34.547-55.219 54.609-92.625 32.484h0.046875c-25.266 15-57.141 12.797-80.062-5.5312-35.391 30.562-79.688 13.219-93.609-28.734-33.047 3.2344-63-19.594-68.672-52.312-40.266-2.1562-75.75-52.312-46.969-93.422v-0.046876c-12.094-13.734-23.109-28.359-32.953-43.781-20.859-29.391-38.953-41.297-67.922-60.422-6.5156 14.484-14.812 28.078-24.703 40.5-12.562-5.25-24.469-11.812-35.625-19.594l-95.344-57.891c-9.9375-5.625-19.5-11.812-28.641-18.656l0.375-0.98437-2.0625-0.84375c0.42188-10.875 25.875-45.797 32.109-55.922l111.14-178.64c4.1719-6.6094 17.438-34.125 25.078-35.016 0.1875 0 155.02 87.094 160.22 91.359h-0.046876c-3 6.1875-6.4219 12.188-10.172 18 14.391 7.5938 29.391 13.969 44.297 20.531 62.109-28.5 102.94-46.078 172.78-25.219 55.875-34.312 124.97-39.375 185.26-13.547 48.656 19.922 51.656 39.094 102.8 8.25zm152.39-72.375c-37.828 16.266-83.859 47.812-120.79 68.391 28.266 50.391 59.906 98.812 90 148.13 6.4688 10.641 44.297 77.531 48.891 77.156 38.484-23.156 81.609-48.703 121.22-69.797-15.094-23.438-135.19-221.02-139.26-223.82zm-798.74 13.828c-6.4688 8.3906-12.422 17.203-17.812 26.391l-120.52 192.84c37.688 21.844 73.734 47.297 112.5 66.984 8.6719-16.453 18.938-31.547 28.781-47.25l109.31-175.22c-20.438-12.188-92.906-57.891-112.27-63.75zm448.5 65.016c-105.05 9.7031-143.76 94.359-223.08 141.94 55.875 20.625 81.516-0.1875 123.47-27.328 55.594-36 86.766 5.8125 122.63 39.188 34.734 32.344 69.328 64.781 103.31 97.922 18.75 18.422 43.219 38.812 60.281 57.281 23.344-22.031 38.812-48 59.391-68.719l0.046876 0.046875c23.344-16.641 48-31.359 73.688-44.016-8.7188-16.547-18.375-32.625-28.922-48.094l-52.406-86.344c-9.0938-13.219-17.016-27.234-23.719-41.812-82.547 55.5-127.97-33.422-214.69-20.062zm-156.05 20.062c-13.875 0.98438-27.469 4.0781-40.406 9.1406-63.844 23.438-58.781 37.734-122.9 1.7812-18.094 24.891-34.547 50.953-49.266 78-17.906 29.297-37.453 57.609-54.797 87.281 61.219 33.609 64.688 59.859 104.06 105.8v0.046875c12.75-14.297 32.25-20.484 50.859-16.266 18.656 4.2188 33.562 18.234 38.906 36.562 44.484-16.078 84.938 3.5156 84.422 54 24.047 0.51562 44.953 16.688 51.516 39.891 5.4844 18.562 49.031 56.719 63.281 65.203h-0.046874c9.3281 4.875 20.531 4.6875 29.672-0.51562 9.1875-5.1562 15.094-14.672 15.703-25.172 1.6406-32.109-60-53.109-58.922-75.609 0.28125-5.6719 3.7031-10.734 8.9062-13.125 5.2031-2.3438 11.297-1.5938 15.75 1.9688 24.141 18.891 49.969 50.062 74.391 71.578 24.094 12 55.359-9.375 45.188-36.984-8.5312-23.203-66.562-60.328-76.453-80.672-5.625-11.578 10.312-23.812 21.047-17.719 10.828 8.0625 20.812 17.203 29.812 27.234l42.516 40.734c17.484 16.781 45.141 38.109 64.125 6 15.469-26.062-10.406-43.359-27.047-59.344l-127.69-120.89c-13.453-13.031-55.359-55.688-68.859-63.047-42.281-23.062-96.797 83.203-194.11 31.641-35.156-18.609-29.859-34.5 0.32812-52.781 27.75-16.781 83.719-68.25 109.92-94.641-9.9375 0.09375-20.062-0.84375-29.906-0.09375zm-125.53 295.31c-15.656 2.4844-38.906 34.312-37.219 46.547 3.2344 12.984 13.828 22.875 27 25.219 15.281-5.5312 32.859-31.078 36.844-47.156h0.046875c-1.9219-13.5-13.078-23.812-26.672-24.609zm76.641 31.406c-16.781 4.125-44.625 42.422-52.734 55.922-11.859 19.828 8.3906 39.188 28.125 37.922 15.375-4.4062 44.344-43.828 51.188-56.25 4.4531-8.5781 3.75-18.938-1.8281-26.859-5.625-7.9219-15.141-12-24.75-10.688zm56.391 60.188c-15.703 4.3594-33.609 27.75-41.156 41.156-4.3594 8.8125-3.4219 19.359 2.4844 27.234s15.75 11.766 25.453 10.031c41.484-12.234 57.75-85.078 13.219-78.375zm50.766 55.734c-3.0938 5.5312-6.6562 10.781-10.641 15.656 6.5625 5.9062 15.516 8.4844 24.234 7.0312 3.7031 0.1875 7.4062 0.1875 11.109 0-6.9375-8.8594-15.281-16.5-24.703-22.641z"/>
</svg>
