<?xml version="1.0" encoding="UTF-8"?>
<svg width="1200pt" height="1200pt" version="1.1" viewBox="0 0 1200 1200" xmlns="http://www.w3.org/2000/svg">
 <path fill="#C00000" d="m1108 223.22c6.9375-5.25 18.562-11.906 19.688-21.422 0.32812-4.3125-1.0781-8.625-3.8906-11.906-2.8594-3.2812-6.9375-5.25-11.25-5.5312-9.9844-0.46875-20.203 10.453-28.406 15.328 1.0312-19.266 9.3281-80.391-19.5-77.203h-0.046875c-16.125 9.375-31.406 20.156-45.656 32.203-32.578 23.766-73.828 51.891-104.3 77.766-0.28125 26.766 2.1562 60.562 0 86.484-12.281 10.078-25.734 18.797-38.578 28.172-79.312-91.969-165.71-151.69-292.6-161.02-6.5156-0.46875-13.031-0.79688-19.5-0.9375v-91.406c0.09375-4.5469-1.5938-8.9531-4.7812-12.188-3.1875-3.2812-7.5469-5.1094-12.094-5.1094-4.5938 0-8.9531 1.8281-12.094 5.1094-3.1875 3.2344-4.9219 7.6406-4.7812 12.188v91.922c-99.047 5.25-192.74 46.359-263.63 115.69-70.922 69.281-114.14 162.05-121.69 260.9-0.46875 6.9375-0.75 13.922-0.84375 20.859h-103.22c-4.4531 0-8.7656 1.7812-11.906 4.9219-3.1875 3.1875-4.9688 7.4531-4.9688 11.953 0 9.3281 7.5469 16.875 16.875 16.875h104.16c10.594 145.69 96.984 275.11 227.44 340.74 48.984 25.172 102.8 39.516 157.78 42.047v106.55c-0.14062 4.5469 1.5938 8.9531 4.7812 12.234 3.1406 3.2344 7.5 5.1094 12.094 5.1094 4.5469 0 8.9062-1.875 12.094-5.1094 3.1875-3.2812 4.875-7.6875 4.7812-12.234v-106.36c199.78-7.7812 384.71-166.45 392.86-382.97h96.516-0.046875c4.5 0 8.8125-1.7812 11.953-4.9219 3.1875-3.1875 4.9219-7.4531 4.9219-11.953s-1.7344-8.7656-4.9219-11.953c-3.1406-3.1406-7.4531-4.9219-11.953-4.9219h-96.469c5.7188-79.031-28.688-142.5-62.719-208.69 13.828-10.078 28.453-19.453 41.859-30 17.484 6.4688 34.781 13.688 52.172 20.391 40.547 15.609 31.969 10.266 67.641-15.516l82.125-59.953c10.078-7.4531 21.422-14.391 30.703-22.688 31.266-27.891-46.5-39.703-60.609-43.453zm-260.39 142.26c-22.453 16.172-45.375 31.688-67.828 47.812h-0.046875c-52.406-66.422-131.21-106.69-215.76-110.25v-84.984c115.27 3.2344 210.71 59.719 283.64 147.42zm-65.766 217.64c-9.2812 0-16.828 7.5469-16.828 16.875s7.5469 16.875 16.828 16.875h25.359c-17.062 121.6-102.94 217.55-228.24 231.94-5.0156 0.5625-10.031 0.98438-15.047 1.2188l0.046875-15.234c0.09375-4.5469-1.5938-8.9531-4.7812-12.234s-7.5469-5.1094-12.094-5.1094c-4.5938 0-8.9531 1.8281-12.094 5.1094-3.1875 3.2812-4.9219 7.6875-4.7812 12.234v14.812c-59.906-5.7188-116.06-31.734-159.14-73.734-43.125-42.047-70.5-97.547-77.719-157.26-0.046875-0.5625-0.09375-1.125-0.1875-1.6875h19.125c4.5 0 8.7656-1.7812 11.953-4.9688 3.1406-3.1875 4.9219-7.4531 4.9219-11.953 0-9.3281-7.5469-16.875-16.875-16.875h-20.484c3.2344-131.72 107.62-230.44 238.36-247.03v29.156l0.046876-0.046874c-0.14063 4.5469 1.5938 8.9531 4.7812 12.234 3.1406 3.2812 7.5 5.1094 12.094 5.1094 4.5469 0 8.9062-1.8281 12.094-5.1094s4.875-7.6875 4.7812-12.234v-30c73.031 5.3438 140.76 40.031 187.82 96.141-11.812 9.75-24.234 18.75-37.078 27.047l-67.078 47.906c-68.062-69.703-181.97-54.094-219.1 37.781-26.484 66.609 6 142.08 72.609 168.66 109.59 42.891 214.45-68.812 165.42-178.97 31.969-24 71.109-53.25 104.86-74.531 8.0156 13.453 14.719 27.656 20.016 42.422 9.5625 26.156 14.906 53.625 15.844 81.469zm-225.61 26.719c23.062-10.641 57.234-41.578 82.781-56.391l0.046875-0.046875c8.5781 24.469 8.5781 51.094 0 75.516-30.984 59.391-102.28 81.328-155.11 35.672-64.969-56.203-24.891-162.79 60.141-168.14 26.391-6.375 57.422 12.094 76.266 28.688-11.953 9.6094-82.969 56.062-86.062 65.531-1.5469 5.9531 0.42188 12.328 5.0625 16.359 4.6406 4.0781 11.203 5.1562 16.922 2.8125zm-26.016-391.36v84.75c-71.859 4.7344-139.4 36-189.52 87.703-50.113 51.703-79.219 120.19-81.703 192.19h-82.406c1.2188-192.37 163.97-353.9 353.63-364.64zm-352.31 398.39h82.125c1.2188 13.688 3.4219 27.234 6.6094 40.594 14.906 60.375 48.328 114.56 95.578 154.97 47.297 40.406 106.03 65.016 168 70.359v83.578c-187.82-9.8906-336.84-164.26-352.31-349.5zm745.5 0.5625c-0.23438 19.406-2.8125 38.719-7.5938 57.516-19.125 80.156-63.75 151.97-127.22 204.56-63.469 52.641-142.31 83.156-224.63 87.094v-83.25c98.297-6 187.26-60.141 237.79-144.71 28.688-48.141 28.594-72.844 39.188-121.78h82.406zm0-34.312h-82.406c-3.1406-65.109-17.109-89.203-41.672-143.63 21.609-15.75 43.781-30.562 65.812-45.609l1.0312 0.32812c33.234 40.547 59.438 139.08 57.188 188.9zm23.812-286.78c0.42188-15.938 0.84375-31.781 0.75-47.766 33.375-27.516 68.297-53.062 104.62-76.5 0.79688 1.125 0 46.078 0 51.188-9.7969 6.0469-19.219 12.656-28.312 19.734l-47.812 35.016c-9 6.9844-18.562 13.312-28.5 18.891zm68.766 39.047c-6.4688 6.1406-36.375-9.2812-44.391-12.375 32.766-26.766 67.078-51.609 102.75-74.391 15.328 2.7188 30.375 6.7031 45.047 11.859-32.531 27.562-67.078 52.594-103.45 74.859z"/>
</svg>
