<?xml version="1.0" encoding="UTF-8"?>
<svg width="1200pt" height="1200pt" version="1.1" viewBox="0 0 1200 1200" xmlns="http://www.w3.org/2000/svg">
 <path d="m580.61 249.77c-6.5078-4.5859-14.484-5.5625-22.477-2.7227-5.6562 2.0039-10.391 6.5195-12.68 12.066-3.7188 9.0234-2.3359 18.254 3.7734 25.324 3.168 3.6562 3.0312 9.125-0.3125 12.617-3.3398 3.5078-8.7969 3.8633-12.598 0.87109-12.461-9.8867-28.637-12.387-44.34-6.875-11.418 4.0039-20.855 13.168-25.258 24.52-6.3711 16.379-2.7734 29.648 1.375 37.898 1.457 2.8984 1.3086 6.3438-0.38281 9.1094-1.7031 2.7656-4.707 4.457-7.957 4.4727-12.965 0.054687-23.512 10.648-23.512 23.605 0 11.742 8.4766 21.516 20.168 23.242 4.2109 0.62109 7.4805 4.0117 7.9453 8.2461 0.46875 4.2344-1.9766 8.2539-5.9492 9.7812-6.1602 2.3672-11.848 6.1484-16.434 10.941-8.0664 8.418-12.508 19.469-12.508 31.109 0 21.926 15.676 40.586 37.281 44.371 2.8398 0.49609 5.293 2.2734 6.6484 4.8203 1.3633 2.5469 1.4727 5.5742 0.30078 8.2109-2.6445 5.9648-4.7344 15.473 0.30078 26.902 3.0195 6.8477 8.7969 12.445 15.855 15.352 13.047 5.3906 23.43 1.8125 29.82-2.1328 1.5273-0.94141 3.2305-1.3945 4.918-1.3945 2.7852 0 5.5117 1.2305 7.3516 3.5469 7.3867 9.3008 21.551 16.809 39.027 10.004 11.754-4.5781 19.656-16.801 19.656-30.41v-18.352c0-14.578-11.863-26.441-26.441-26.441-14.574 0-26.441 11.859-26.441 26.441 0 5.1758-4.1914 9.375-9.375 9.375-5.1836 0-9.375-4.1992-9.375-9.375 0-24.918 20.27-45.191 45.191-45.191 9.8984 0 18.988 3.293 26.441 8.7109v-229.32c0-7.668-3.7461-14.887-10.016-19.316zm-35.77 175.88c-5.1836 0-9.375-4.1992-9.375-9.375 0-11.117-9.0469-20.164-20.168-20.164-0.64844 0-1.2148-0.24219-1.8242-0.36719-1.457 0.16406-2.9102 0.41797-4.375 0.41797-9.9688 0-19.93-3.7891-27.52-11.379-3.6602-3.6602-3.6602-9.5938 0-13.258 3.6602-3.6602 9.5938-3.6602 13.258 0 7.8555 7.875 20.664 7.8555 28.52 0 3.8086-3.8086 5.9062-8.8711 5.9062-14.254 0-5.3867-2.0977-10.449-5.9062-14.258-3.6602-3.6602-3.6602-9.5938 0-13.258 3.6602-3.6602 9.5938-3.6602 13.258 0 7.3516 7.3477 11.398 17.121 11.398 27.516 0 10.102-3.8867 19.574-10.848 26.844 10.281 7.0117 17.055 18.805 17.055 32.16 0 5.1758-4.1914 9.375-9.375 9.375z"/>
 <path d="m741.59 431.91c-3.9727-1.5273-6.418-5.5469-5.9492-9.7812 0.46875-4.2344 3.7344-7.6211 7.9453-8.2461 11.691-1.7266 20.168-11.5 20.168-23.242 0-12.961-10.547-23.551-23.512-23.605-3.25-0.015624-6.2539-1.707-7.957-4.4727-1.6953-2.7656-1.8398-6.2109-0.38281-9.1094 4.1484-8.25 7.7461-21.52 1.3828-37.898-4.4141-11.348-13.852-20.512-25.27-24.512-15.711-5.5156-31.859-3.0156-44.34 6.8711-3.7891 2.9922-9.2461 2.6367-12.598-0.87109-3.3398-3.4922-3.4805-8.957-0.3125-12.617 6.1055-7.0664 7.4883-16.301 3.7734-25.328-2.2891-5.543-7.0234-10.059-12.68-12.062-3.0039-1.0664-6.0039-1.5977-8.9258-1.5977-4.8516 0-9.4844 1.457-13.551 4.3203-6.2695 4.4297-10.016 11.648-10.016 19.316v78.305c0 14.578 11.863 26.441 26.441 26.441 14.574 0 26.441-11.859 26.441-26.441 0-5.1758 4.1914-9.375 9.375-9.375s9.375 4.1992 9.375 9.375c0 24.918-20.27 45.191-45.191 45.191-9.8984 0-18.988-3.293-26.441-8.7109v169.37c0 13.609 7.9023 25.832 19.656 30.41 17.488 6.7969 31.641-0.69922 39.027-10.004 2.957-3.7188 8.2227-4.6445 12.27-2.1523 6.3906 3.9453 16.789 7.5078 29.809 2.1367 7.0664-2.9102 12.844-8.5117 15.867-15.359 5.0352-11.43 2.9492-20.938 0.30078-26.902-1.1719-2.6367-1.0625-5.668 0.30078-8.2109 1.3555-2.5469 3.8086-4.3242 6.6484-4.8203 21.605-3.7852 37.281-22.445 37.281-44.371 0-11.641-4.4414-22.691-12.508-31.109-4.5859-4.793-10.273-8.5742-16.434-10.941zm-11.488 47.035c-3.6602 3.6523-9.5938 3.6562-13.258-0.003907-6.0938-6.0938-15.766-7.2266-23.309-3.5742 7.0312 14.504 4.6953 32.438-7.3281 44.461-1.832 1.832-4.2305 2.7461-6.6289 2.7461-2.3984 0-4.7969-0.91406-6.6289-2.7461-3.6602-3.6602-3.6602-9.5938 0-13.258 7.8633-7.8594 7.8633-20.652 0-28.516-7.8633-7.875-20.672-7.8555-28.52 0-3.6602 3.6602-9.5938 3.6602-13.258 0-3.6602-3.6602-3.6602-9.5938 0-13.258 13.633-13.613 34.84-14.895 50.016-4.0938 6.3008-4.168 13.672-6.4219 21.395-6.4219 10.402 0 20.168 4.0469 27.512 11.398 3.6602 3.668 3.6602 9.5977 0 13.262z"/>
 <path d="m859.33 457.64v-216.57c0-2.4141-0.92578-4.7305-2.5898-6.4727-3.7188-3.8906-92.816-95.23-256.74-95.23s-253.02 91.336-256.74 95.23c-1.668 1.7422-2.5898 4.0586-2.5898 6.4727v216.57c0 96.539 53.703 183.21 140.15 226.18l114.29 56.805c1.3008 0.64453 2.7266 0.98047 4.1758 0.98047h1.4453c1.4453 0 2.875-0.33594 4.1758-0.98047l114.29-56.805c86.445-42.977 140.15-129.64 140.15-226.18zm-116.17 108.2c-4.9453 11.234-14.383 20.395-25.871 25.133-13.359 5.5117-27.254 5.4961-39.844 0.10547-9.6602 9.082-22.074 13.906-35.082 13.906-6.6562 0-13.469-1.2617-20.141-3.8633-9.1055-3.5469-16.719-9.8945-22.219-17.859-5.5 7.9609-13.113 14.312-22.219 17.859-6.6758 2.6016-13.484 3.8633-20.141 3.8633-13.008 0-25.426-4.8242-35.082-13.906-12.578 5.4062-26.477 5.4141-39.852-0.10937-11.48-4.7344-20.918-13.895-25.863-25.125-4.625-10.496-5.8398-21.289-3.6445-31.727-25.141-8.8711-42.48-32.699-42.48-60.141 0-16.496 6.2891-32.148 17.707-44.078 0-0.003906 0.007812-0.003906 0.007812-0.003906 1.8477-1.9336 3.8281-3.7461 5.9062-5.4297-10.355-7.7227-16.848-20.008-16.848-33.805 0-18.797 12.359-34.809 29.379-40.316-3.7461-13.43-2.9766-27.816 2.3711-41.566 6.3633-16.383 20.012-29.621 36.531-35.418 13.129-4.6016 26.531-5.1562 38.945-1.8594-0.36719-6.4453 0.75-13.082 3.3984-19.52 4.3477-10.551 13-18.785 23.738-22.602 13.707-4.8672 28.117-3.0078 39.57 5.0781 3.2812 2.3164 6.1211 5.1016 8.5781 8.168 2.457-3.0664 5.2969-5.8516 8.5781-8.168 11.445-8.0859 25.863-9.9336 39.57-5.0781 10.738 3.8125 19.391 12.047 23.738 22.594 2.6445 6.4414 3.7617 13.074 3.3984 19.523 12.395-3.2969 25.816-2.75 38.945 1.8633 16.516 5.7891 30.168 19.027 36.539 35.418 5.3359 13.742 6.1055 28.133 2.3633 41.559 17.02 5.5078 29.379 21.52 29.379 40.316 0 13.797-6.4922 26.082-16.848 33.805 2.0781 1.6836 4.0547 3.4961 5.9062 5.4297 0 0 0.007813 0 0.007813 0.003906 11.418 11.93 17.707 27.582 17.707 44.078 0 27.441-17.34 51.27-42.48 60.141 2.1992 10.438 0.98047 21.23-3.6445 31.727z"/>
 <path d="m983.18 610.02c-5.6758-6.6484-13.945-10.457-22.688-10.457-24.895 0-47.16 16.695-54.145 40.594l-33.867 115.93c-1.9766 6.7812-6.3008 12.68-12.148 16.621l-72.273 48.625 20.793-48.582c5.0352-11.762 4.6953-25.094-0.94141-36.578-5.6289-11.488-15.957-19.926-28.344-23.152-19.609-5.1211-40.047 3.7773-49.676 21.633l-44 81.559c-10.52 9.3711-70.039 67.418-48.852 162.87l-15.48 47.418c-2.6289 8.0234-1.2891 16.543 3.6719 23.383 4.9531 6.8359 12.645 10.758 21.086 10.758h136.78c14.363 0 26.055-11.688 26.055-26.051v-46.688l140.95-153.72c6.5273-7.1289 10.777-15.93 12.277-25.461l27.613-174.64c1.3555-8.6367-1.1172-17.402-6.8008-24.051zm-39.32 195.77c-0.93359 5.8867-3.5625 11.324-7.5898 15.723l-143.41 156.4c-1.582 1.7305-2.4609 3.9922-2.4609 6.3359v50.336c0 4.0234-3.2773 7.3008-7.3047 7.3008h-136.78c-2.3633 0-4.5234-1.0977-5.9062-3.0156-1.3906-1.9141-1.7656-4.3047-1.0352-6.5508l16.289-49.891c0.53906-1.6406 0.61328-3.3867 0.21875-5.0625-21.754-92.285 40.77-145.76 43.422-147.98 0.92578-0.76953 1.7031-1.7109 2.2695-2.7734l44.816-83.066c4.4766-8.2891 13.02-13.211 22.082-13.211 2.1133 0 4.2461 0.26562 6.3711 0.82031 7.0938 1.8438 13.008 6.6797 16.242 13.262 3.2227 6.5781 3.4141 14.215 0.53906 20.949l-33.289 77.773c-1.6406 3.8242-0.56641 8.2617 2.6367 10.914 3.2031 2.6523 7.7617 2.8828 11.215 0.55469l98.621-66.348c9.4766-6.3867 16.469-15.945 19.676-26.918l33.867-115.93c4.6602-15.957 19.527-27.098 36.145-27.098 3.2969 0 6.2891 1.3828 8.4336 3.8867 2.1523 2.5078 3.0469 5.6914 2.5352 8.9453l-4.8359 30.602c-5.0234-1.2305-8.0391-3.3555-7.9258-5.5117l2.168-10.41c1.0625-5.0664-2.1875-10.035-7.2617-11.09-5.1562-1.0742-10.043 2.1992-11.086 7.2656l-2.2344 10.711c-0.24609 1.4453-1.2344 9.0547 4.2031 16.504 4.0898 5.6133 10.625 9.2383 19.211 11.039l-19.844 125.54z"/>
 <path d="m562.97 979.07c21.184-95.453-38.332-153.5-48.852-162.87l-44-81.562c-9.6406-17.852-30.113-26.75-49.676-21.629-12.387 3.2266-22.715 11.664-28.344 23.152-5.6406 11.484-5.9766 24.82-0.94141 36.578l20.793 48.582-72.273-48.625c-5.8516-3.9414-10.172-9.8438-12.148-16.617l-33.867-115.93c-6.9844-23.898-29.25-40.594-54.145-40.594-8.7422 0-17.012 3.8086-22.688 10.457-5.6836 6.6484-8.1562 15.414-6.793 24.055l27.602 174.64c1.5 9.5312 5.75 18.332 12.277 25.465l140.95 153.72v46.688c0 14.363 11.691 26.051 26.055 26.051h136.78c8.4414 0 16.133-3.9219 21.086-10.758 4.9609-6.8398 6.3008-15.359 3.6719-23.383l-15.48-47.418zm-3.3711 59.793c-1.3828 1.918-3.543 3.0156-5.9062 3.0156h-136.78c-4.0273 0-7.3047-3.2773-7.3047-7.3008v-50.336c0-2.3438-0.87891-4.6055-2.4609-6.3359l-143.41-156.4c-4.0273-4.4023-6.6562-9.8438-7.5898-15.73l-19.836-125.54c8.582-1.8008 15.117-5.4258 19.203-11.035 5.4375-7.4492 4.4492-15.055 4.1367-16.805l-2.168-10.41c-1.0547-5.0664-5.9766-8.3398-11.086-7.2656-5.0703 1.0586-8.3203 6.0234-7.2617 11.09l2.1055 10.105c0 0.007813-0.11719 1.2031-0.87109 2.2305-1.1523 1.5859-3.5977 2.8398-6.9727 3.6523l-4.8438-30.668c-0.52344-3.2578 0.375-6.4414 2.5273-8.9492 2.1406-2.5039 5.1367-3.8867 8.4336-3.8867 16.617 0 31.484 11.141 36.145 27.098l33.867 115.93c3.2031 10.969 10.199 20.527 19.676 26.91l98.621 66.348c3.4609 2.3281 8.0117 2.0977 11.215-0.55469 3.2031-2.6523 4.2773-7.0898 2.6367-10.914l-33.289-77.773c-2.875-6.7344-2.6836-14.371 0.53906-20.949 3.2305-6.582 9.1445-11.418 16.242-13.262 11.242-2.9219 22.934 2.168 28.453 12.387l44.816 83.07c0.56641 1.0547 1.3359 1.9961 2.2539 2.7617 2.6719 2.2305 65.195 55.707 43.441 147.99-0.39453 1.6758-0.32031 3.4258 0.21875 5.0625l16.289 49.891c0.73047 2.2461 0.35547 4.6367-1.0352 6.5508z"/>
</svg>
